<svg xmlns="http://www.w3.org/2000/svg" viewBox="0 0 1280 900" style="background:#0a0d18;font-family:sans-serif">
  <text x="640.0" y="28" text-anchor="middle" font-family="monospace" font-size="18" fill="#fff" font-weight="bold">Shelly — attack reticles (hard outer edge + inner radial fade to transparent)</text>
  <rect x="20" y="60" width="400" height="400" fill="#0f1320"/>
<line x1="20" y1="60" x2="20" y2="460" stroke="#1e2538" stroke-width="0.5"/>
<line x1="45" y1="60" x2="45" y2="460" stroke="#1e2538" stroke-width="0.5"/>
<line x1="70" y1="60" x2="70" y2="460" stroke="#1e2538" stroke-width="0.5"/>
<line x1="95" y1="60" x2="95" y2="460" stroke="#1e2538" stroke-width="0.5"/>
<line x1="120" y1="60" x2="120" y2="460" stroke="#1e2538" stroke-width="0.5"/>
<line x1="145" y1="60" x2="145" y2="460" stroke="#1e2538" stroke-width="0.5"/>
<line x1="170" y1="60" x2="170" y2="460" stroke="#1e2538" stroke-width="0.5"/>
<line x1="195" y1="60" x2="195" y2="460" stroke="#1e2538" stroke-width="0.5"/>
<line x1="220" y1="60" x2="220" y2="460" stroke="#1e2538" stroke-width="0.5"/>
<line x1="245" y1="60" x2="245" y2="460" stroke="#1e2538" stroke-width="0.5"/>
<line x1="270" y1="60" x2="270" y2="460" stroke="#1e2538" stroke-width="0.5"/>
<line x1="295" y1="60" x2="295" y2="460" stroke="#1e2538" stroke-width="0.5"/>
<line x1="320" y1="60" x2="320" y2="460" stroke="#1e2538" stroke-width="0.5"/>
<line x1="345" y1="60" x2="345" y2="460" stroke="#1e2538" stroke-width="0.5"/>
<line x1="370" y1="60" x2="370" y2="460" stroke="#1e2538" stroke-width="0.5"/>
<line x1="395" y1="60" x2="395" y2="460" stroke="#1e2538" stroke-width="0.5"/>
<line x1="420" y1="60" x2="420" y2="460" stroke="#1e2538" stroke-width="0.5"/>
<line x1="20" y1="60" x2="420" y2="60" stroke="#1e2538" stroke-width="0.5"/>
<line x1="20" y1="85" x2="420" y2="85" stroke="#1e2538" stroke-width="0.5"/>
<line x1="20" y1="110" x2="420" y2="110" stroke="#1e2538" stroke-width="0.5"/>
<line x1="20" y1="135" x2="420" y2="135" stroke="#1e2538" stroke-width="0.5"/>
<line x1="20" y1="160" x2="420" y2="160" stroke="#1e2538" stroke-width="0.5"/>
<line x1="20" y1="185" x2="420" y2="185" stroke="#1e2538" stroke-width="0.5"/>
<line x1="20" y1="210" x2="420" y2="210" stroke="#1e2538" stroke-width="0.5"/>
<line x1="20" y1="235" x2="420" y2="235" stroke="#1e2538" stroke-width="0.5"/>
<line x1="20" y1="260" x2="420" y2="260" stroke="#1e2538" stroke-width="0.5"/>
<line x1="20" y1="285" x2="420" y2="285" stroke="#1e2538" stroke-width="0.5"/>
<line x1="20" y1="310" x2="420" y2="310" stroke="#1e2538" stroke-width="0.5"/>
<line x1="20" y1="335" x2="420" y2="335" stroke="#1e2538" stroke-width="0.5"/>
<line x1="20" y1="360" x2="420" y2="360" stroke="#1e2538" stroke-width="0.5"/>
<line x1="20" y1="385" x2="420" y2="385" stroke="#1e2538" stroke-width="0.5"/>
<line x1="20" y1="410" x2="420" y2="410" stroke="#1e2538" stroke-width="0.5"/>
<line x1="20" y1="435" x2="420" y2="435" stroke="#1e2538" stroke-width="0.5"/>
<line x1="20" y1="460" x2="420" y2="460" stroke="#1e2538" stroke-width="0.5"/>
<defs><clipPath id="clip-g-ShotgunGirlWeapon-20-60"><path d="M 220.0,380 L 124.2,214.0 A 191.66666666666669,191.66666666666669 0 0,1 315.8,214.0 Z"/></clipPath><filter id="blur-g-ShotgunGirlWeapon-20-60" x="-30%" y="-30%" width="160%" height="160%"><feGaussianBlur stdDeviation="10.54"/></filter></defs>
<g clip-path="url(#clip-g-ShotgunGirlWeapon-20-60)"><path d="M 220.0,380 L 124.2,214.0 A 191.66666666666669,191.66666666666669 0 0,1 315.8,214.0 Z" fill="none" stroke="white" stroke-width="42.16666666666667" stroke-opacity="0.5" stroke-linejoin="round" filter="url(#blur-g-ShotgunGirlWeapon-20-60)"/></g>
<path d="M 220.0,380 L 124.2,214.0 A 191.66666666666669,191.66666666666669 0 0,1 315.8,214.0 Z" fill="none" stroke="white" stroke-width="3.0" stroke-opacity="0.95" stroke-linejoin="round"/>
<image href="../assets/brawlers/Shelly/portrait.png" x="204.0" y="364.0" width="32" height="32"/>
<text x="32" y="82" font-family="monospace" font-size="13" fill="#fff" font-weight="bold">Base attack</text>
<text x="32" y="100" font-family="monospace" font-size="10" fill="#9ba3b8">skill: ShotgunGirlWeapon</text>
<text x="32" y="116" font-family="monospace" font-size="10" fill="#9ba3b8">cone — 7.67 tiles, 60°</text>
<text x="32" y="132" font-family="monospace" font-size="10" fill="#9ba3b8">proj: ShotgunGirlProjectile</text><rect x="440" y="60" width="400" height="400" fill="#0f1320"/>
<line x1="440" y1="60" x2="440" y2="460" stroke="#1e2538" stroke-width="0.5"/>
<line x1="465" y1="60" x2="465" y2="460" stroke="#1e2538" stroke-width="0.5"/>
<line x1="490" y1="60" x2="490" y2="460" stroke="#1e2538" stroke-width="0.5"/>
<line x1="515" y1="60" x2="515" y2="460" stroke="#1e2538" stroke-width="0.5"/>
<line x1="540" y1="60" x2="540" y2="460" stroke="#1e2538" stroke-width="0.5"/>
<line x1="565" y1="60" x2="565" y2="460" stroke="#1e2538" stroke-width="0.5"/>
<line x1="590" y1="60" x2="590" y2="460" stroke="#1e2538" stroke-width="0.5"/>
<line x1="615" y1="60" x2="615" y2="460" stroke="#1e2538" stroke-width="0.5"/>
<line x1="640" y1="60" x2="640" y2="460" stroke="#1e2538" stroke-width="0.5"/>
<line x1="665" y1="60" x2="665" y2="460" stroke="#1e2538" stroke-width="0.5"/>
<line x1="690" y1="60" x2="690" y2="460" stroke="#1e2538" stroke-width="0.5"/>
<line x1="715" y1="60" x2="715" y2="460" stroke="#1e2538" stroke-width="0.5"/>
<line x1="740" y1="60" x2="740" y2="460" stroke="#1e2538" stroke-width="0.5"/>
<line x1="765" y1="60" x2="765" y2="460" stroke="#1e2538" stroke-width="0.5"/>
<line x1="790" y1="60" x2="790" y2="460" stroke="#1e2538" stroke-width="0.5"/>
<line x1="815" y1="60" x2="815" y2="460" stroke="#1e2538" stroke-width="0.5"/>
<line x1="840" y1="60" x2="840" y2="460" stroke="#1e2538" stroke-width="0.5"/>
<line x1="440" y1="60" x2="840" y2="60" stroke="#1e2538" stroke-width="0.5"/>
<line x1="440" y1="85" x2="840" y2="85" stroke="#1e2538" stroke-width="0.5"/>
<line x1="440" y1="110" x2="840" y2="110" stroke="#1e2538" stroke-width="0.5"/>
<line x1="440" y1="135" x2="840" y2="135" stroke="#1e2538" stroke-width="0.5"/>
<line x1="440" y1="160" x2="840" y2="160" stroke="#1e2538" stroke-width="0.5"/>
<line x1="440" y1="185" x2="840" y2="185" stroke="#1e2538" stroke-width="0.5"/>
<line x1="440" y1="210" x2="840" y2="210" stroke="#1e2538" stroke-width="0.5"/>
<line x1="440" y1="235" x2="840" y2="235" stroke="#1e2538" stroke-width="0.5"/>
<line x1="440" y1="260" x2="840" y2="260" stroke="#1e2538" stroke-width="0.5"/>
<line x1="440" y1="285" x2="840" y2="285" stroke="#1e2538" stroke-width="0.5"/>
<line x1="440" y1="310" x2="840" y2="310" stroke="#1e2538" stroke-width="0.5"/>
<line x1="440" y1="335" x2="840" y2="335" stroke="#1e2538" stroke-width="0.5"/>
<line x1="440" y1="360" x2="840" y2="360" stroke="#1e2538" stroke-width="0.5"/>
<line x1="440" y1="385" x2="840" y2="385" stroke="#1e2538" stroke-width="0.5"/>
<line x1="440" y1="410" x2="840" y2="410" stroke="#1e2538" stroke-width="0.5"/>
<line x1="440" y1="435" x2="840" y2="435" stroke="#1e2538" stroke-width="0.5"/>
<line x1="440" y1="460" x2="840" y2="460" stroke="#1e2538" stroke-width="0.5"/>
<defs><clipPath id="clip-g-ShotgunGirlUlti-440-60"><path d="M 640.0,380 L 493.2,256.8 A 191.66666666666669,191.66666666666669 0 0,1 786.8,256.8 Z"/></clipPath><filter id="blur-g-ShotgunGirlUlti-440-60" x="-30%" y="-30%" width="160%" height="160%"><feGaussianBlur stdDeviation="10.54"/></filter></defs>
<g clip-path="url(#clip-g-ShotgunGirlUlti-440-60)"><path d="M 640.0,380 L 493.2,256.8 A 191.66666666666669,191.66666666666669 0 0,1 786.8,256.8 Z" fill="none" stroke="white" stroke-width="42.16666666666667" stroke-opacity="0.5" stroke-linejoin="round" filter="url(#blur-g-ShotgunGirlUlti-440-60)"/></g>
<path d="M 640.0,380 L 493.2,256.8 A 191.66666666666669,191.66666666666669 0 0,1 786.8,256.8 Z" fill="none" stroke="white" stroke-width="3.0" stroke-opacity="0.95" stroke-linejoin="round"/>
<image href="../assets/brawlers/Shelly/portrait.png" x="624.0" y="364.0" width="32" height="32"/>
<text x="452" y="82" font-family="monospace" font-size="13" fill="#fff" font-weight="bold">Super</text>
<text x="452" y="100" font-family="monospace" font-size="10" fill="#9ba3b8">skill: ShotgunGirlUlti</text>
<text x="452" y="116" font-family="monospace" font-size="10" fill="#9ba3b8">cone — 7.67 tiles, 100°</text>
<text x="452" y="132" font-family="monospace" font-size="10" fill="#9ba3b8">proj: ShotgunGirlUltiProjectile</text><rect x="860" y="60" width="400" height="400" fill="#0f1320"/>
<line x1="860" y1="60" x2="860" y2="460" stroke="#1e2538" stroke-width="0.5"/>
<line x1="885" y1="60" x2="885" y2="460" stroke="#1e2538" stroke-width="0.5"/>
<line x1="910" y1="60" x2="910" y2="460" stroke="#1e2538" stroke-width="0.5"/>
<line x1="935" y1="60" x2="935" y2="460" stroke="#1e2538" stroke-width="0.5"/>
<line x1="960" y1="60" x2="960" y2="460" stroke="#1e2538" stroke-width="0.5"/>
<line x1="985" y1="60" x2="985" y2="460" stroke="#1e2538" stroke-width="0.5"/>
<line x1="1010" y1="60" x2="1010" y2="460" stroke="#1e2538" stroke-width="0.5"/>
<line x1="1035" y1="60" x2="1035" y2="460" stroke="#1e2538" stroke-width="0.5"/>
<line x1="1060" y1="60" x2="1060" y2="460" stroke="#1e2538" stroke-width="0.5"/>
<line x1="1085" y1="60" x2="1085" y2="460" stroke="#1e2538" stroke-width="0.5"/>
<line x1="1110" y1="60" x2="1110" y2="460" stroke="#1e2538" stroke-width="0.5"/>
<line x1="1135" y1="60" x2="1135" y2="460" stroke="#1e2538" stroke-width="0.5"/>
<line x1="1160" y1="60" x2="1160" y2="460" stroke="#1e2538" stroke-width="0.5"/>
<line x1="1185" y1="60" x2="1185" y2="460" stroke="#1e2538" stroke-width="0.5"/>
<line x1="1210" y1="60" x2="1210" y2="460" stroke="#1e2538" stroke-width="0.5"/>
<line x1="1235" y1="60" x2="1235" y2="460" stroke="#1e2538" stroke-width="0.5"/>
<line x1="1260" y1="60" x2="1260" y2="460" stroke="#1e2538" stroke-width="0.5"/>
<line x1="860" y1="60" x2="1260" y2="60" stroke="#1e2538" stroke-width="0.5"/>
<line x1="860" y1="85" x2="1260" y2="85" stroke="#1e2538" stroke-width="0.5"/>
<line x1="860" y1="110" x2="1260" y2="110" stroke="#1e2538" stroke-width="0.5"/>
<line x1="860" y1="135" x2="1260" y2="135" stroke="#1e2538" stroke-width="0.5"/>
<line x1="860" y1="160" x2="1260" y2="160" stroke="#1e2538" stroke-width="0.5"/>
<line x1="860" y1="185" x2="1260" y2="185" stroke="#1e2538" stroke-width="0.5"/>
<line x1="860" y1="210" x2="1260" y2="210" stroke="#1e2538" stroke-width="0.5"/>
<line x1="860" y1="235" x2="1260" y2="235" stroke="#1e2538" stroke-width="0.5"/>
<line x1="860" y1="260" x2="1260" y2="260" stroke="#1e2538" stroke-width="0.5"/>
<line x1="860" y1="285" x2="1260" y2="285" stroke="#1e2538" stroke-width="0.5"/>
<line x1="860" y1="310" x2="1260" y2="310" stroke="#1e2538" stroke-width="0.5"/>
<line x1="860" y1="335" x2="1260" y2="335" stroke="#1e2538" stroke-width="0.5"/>
<line x1="860" y1="360" x2="1260" y2="360" stroke="#1e2538" stroke-width="0.5"/>
<line x1="860" y1="385" x2="1260" y2="385" stroke="#1e2538" stroke-width="0.5"/>
<line x1="860" y1="410" x2="1260" y2="410" stroke="#1e2538" stroke-width="0.5"/>
<line x1="860" y1="435" x2="1260" y2="435" stroke="#1e2538" stroke-width="0.5"/>
<line x1="860" y1="460" x2="1260" y2="460" stroke="#1e2538" stroke-width="0.5"/>
<defs><clipPath id="clip-g-ShotgunGirlOverchargedWeapon-860-60"><path d="M 1060.0,380 L 964.2,214.0 A 191.66666666666669,191.66666666666669 0 0,1 1155.8,214.0 Z"/></clipPath><filter id="blur-g-ShotgunGirlOverchargedWeapon-860-60" x="-30%" y="-30%" width="160%" height="160%"><feGaussianBlur stdDeviation="10.54"/></filter></defs>
<g clip-path="url(#clip-g-ShotgunGirlOverchargedWeapon-860-60)"><path d="M 1060.0,380 L 964.2,214.0 A 191.66666666666669,191.66666666666669 0 0,1 1155.8,214.0 Z" fill="none" stroke="white" stroke-width="42.16666666666667" stroke-opacity="0.5" stroke-linejoin="round" filter="url(#blur-g-ShotgunGirlOverchargedWeapon-860-60)"/></g>
<path d="M 1060.0,380 L 964.2,214.0 A 191.66666666666669,191.66666666666669 0 0,1 1155.8,214.0 Z" fill="none" stroke="white" stroke-width="3.0" stroke-opacity="0.95" stroke-linejoin="round"/>
<image href="../assets/brawlers/Shelly/portrait.png" x="1044.0" y="364.0" width="32" height="32"/>
<text x="872" y="82" font-family="monospace" font-size="13" fill="#fff" font-weight="bold">Hypercharged attack</text>
<text x="872" y="100" font-family="monospace" font-size="10" fill="#9ba3b8">skill: ShotgunGirlOverchargedWeapon</text>
<text x="872" y="116" font-family="monospace" font-size="10" fill="#9ba3b8">cone — 7.67 tiles, 60°</text>
<text x="872" y="132" font-family="monospace" font-size="10" fill="#9ba3b8">proj: ShellyOverchargedProjectile</text><rect x="20" y="480" width="400" height="400" fill="#0f1320"/>
<line x1="20" y1="480" x2="20" y2="880" stroke="#1e2538" stroke-width="0.5"/>
<line x1="45" y1="480" x2="45" y2="880" stroke="#1e2538" stroke-width="0.5"/>
<line x1="70" y1="480" x2="70" y2="880" stroke="#1e2538" stroke-width="0.5"/>
<line x1="95" y1="480" x2="95" y2="880" stroke="#1e2538" stroke-width="0.5"/>
<line x1="120" y1="480" x2="120" y2="880" stroke="#1e2538" stroke-width="0.5"/>
<line x1="145" y1="480" x2="145" y2="880" stroke="#1e2538" stroke-width="0.5"/>
<line x1="170" y1="480" x2="170" y2="880" stroke="#1e2538" stroke-width="0.5"/>
<line x1="195" y1="480" x2="195" y2="880" stroke="#1e2538" stroke-width="0.5"/>
<line x1="220" y1="480" x2="220" y2="880" stroke="#1e2538" stroke-width="0.5"/>
<line x1="245" y1="480" x2="245" y2="880" stroke="#1e2538" stroke-width="0.5"/>
<line x1="270" y1="480" x2="270" y2="880" stroke="#1e2538" stroke-width="0.5"/>
<line x1="295" y1="480" x2="295" y2="880" stroke="#1e2538" stroke-width="0.5"/>
<line x1="320" y1="480" x2="320" y2="880" stroke="#1e2538" stroke-width="0.5"/>
<line x1="345" y1="480" x2="345" y2="880" stroke="#1e2538" stroke-width="0.5"/>
<line x1="370" y1="480" x2="370" y2="880" stroke="#1e2538" stroke-width="0.5"/>
<line x1="395" y1="480" x2="395" y2="880" stroke="#1e2538" stroke-width="0.5"/>
<line x1="420" y1="480" x2="420" y2="880" stroke="#1e2538" stroke-width="0.5"/>
<line x1="20" y1="480" x2="420" y2="480" stroke="#1e2538" stroke-width="0.5"/>
<line x1="20" y1="505" x2="420" y2="505" stroke="#1e2538" stroke-width="0.5"/>
<line x1="20" y1="530" x2="420" y2="530" stroke="#1e2538" stroke-width="0.5"/>
<line x1="20" y1="555" x2="420" y2="555" stroke="#1e2538" stroke-width="0.5"/>
<line x1="20" y1="580" x2="420" y2="580" stroke="#1e2538" stroke-width="0.5"/>
<line x1="20" y1="605" x2="420" y2="605" stroke="#1e2538" stroke-width="0.5"/>
<line x1="20" y1="630" x2="420" y2="630" stroke="#1e2538" stroke-width="0.5"/>
<line x1="20" y1="655" x2="420" y2="655" stroke="#1e2538" stroke-width="0.5"/>
<line x1="20" y1="680" x2="420" y2="680" stroke="#1e2538" stroke-width="0.5"/>
<line x1="20" y1="705" x2="420" y2="705" stroke="#1e2538" stroke-width="0.5"/>
<line x1="20" y1="730" x2="420" y2="730" stroke="#1e2538" stroke-width="0.5"/>
<line x1="20" y1="755" x2="420" y2="755" stroke="#1e2538" stroke-width="0.5"/>
<line x1="20" y1="780" x2="420" y2="780" stroke="#1e2538" stroke-width="0.5"/>
<line x1="20" y1="805" x2="420" y2="805" stroke="#1e2538" stroke-width="0.5"/>
<line x1="20" y1="830" x2="420" y2="830" stroke="#1e2538" stroke-width="0.5"/>
<line x1="20" y1="855" x2="420" y2="855" stroke="#1e2538" stroke-width="0.5"/>
<line x1="20" y1="880" x2="420" y2="880" stroke="#1e2538" stroke-width="0.5"/>
<defs><clipPath id="clip-g-ShotgunGirlClayPigeons-20-480"><path d="M 220.0,800 L 155.3,558.5 A 250.0,250.0 0 0,1 284.7,558.5 Z"/></clipPath><filter id="blur-g-ShotgunGirlClayPigeons-20-480" x="-30%" y="-30%" width="160%" height="160%"><feGaussianBlur stdDeviation="13.75"/></filter></defs>
<g clip-path="url(#clip-g-ShotgunGirlClayPigeons-20-480)"><path d="M 220.0,800 L 155.3,558.5 A 250.0,250.0 0 0,1 284.7,558.5 Z" fill="none" stroke="white" stroke-width="55.0" stroke-opacity="0.5" stroke-linejoin="round" filter="url(#blur-g-ShotgunGirlClayPigeons-20-480)"/></g>
<path d="M 220.0,800 L 155.3,558.5 A 250.0,250.0 0 0,1 284.7,558.5 Z" fill="none" stroke="white" stroke-width="3.0" stroke-opacity="0.95" stroke-linejoin="round"/>
<image href="../assets/brawlers/Shelly/portrait.png" x="204.0" y="784.0" width="32" height="32"/>
<text x="32" y="502" font-family="monospace" font-size="13" fill="#fff" font-weight="bold">Gadget: Clay Pigeons</text>
<text x="32" y="520" font-family="monospace" font-size="10" fill="#9ba3b8">skill: ShotgunGirlClayPigeons</text>
<text x="32" y="536" font-family="monospace" font-size="10" fill="#9ba3b8">cone — 10.00 tiles, 30°</text>
<text x="32" y="552" font-family="monospace" font-size="10" fill="#9ba3b8">proj: ShotgunGirlProjectileGadgetSkill</text><rect x="440" y="480" width="400" height="400" fill="#0f1320"/>
<line x1="440" y1="480" x2="440" y2="880" stroke="#1e2538" stroke-width="0.5"/>
<line x1="465" y1="480" x2="465" y2="880" stroke="#1e2538" stroke-width="0.5"/>
<line x1="490" y1="480" x2="490" y2="880" stroke="#1e2538" stroke-width="0.5"/>
<line x1="515" y1="480" x2="515" y2="880" stroke="#1e2538" stroke-width="0.5"/>
<line x1="540" y1="480" x2="540" y2="880" stroke="#1e2538" stroke-width="0.5"/>
<line x1="565" y1="480" x2="565" y2="880" stroke="#1e2538" stroke-width="0.5"/>
<line x1="590" y1="480" x2="590" y2="880" stroke="#1e2538" stroke-width="0.5"/>
<line x1="615" y1="480" x2="615" y2="880" stroke="#1e2538" stroke-width="0.5"/>
<line x1="640" y1="480" x2="640" y2="880" stroke="#1e2538" stroke-width="0.5"/>
<line x1="665" y1="480" x2="665" y2="880" stroke="#1e2538" stroke-width="0.5"/>
<line x1="690" y1="480" x2="690" y2="880" stroke="#1e2538" stroke-width="0.5"/>
<line x1="715" y1="480" x2="715" y2="880" stroke="#1e2538" stroke-width="0.5"/>
<line x1="740" y1="480" x2="740" y2="880" stroke="#1e2538" stroke-width="0.5"/>
<line x1="765" y1="480" x2="765" y2="880" stroke="#1e2538" stroke-width="0.5"/>
<line x1="790" y1="480" x2="790" y2="880" stroke="#1e2538" stroke-width="0.5"/>
<line x1="815" y1="480" x2="815" y2="880" stroke="#1e2538" stroke-width="0.5"/>
<line x1="840" y1="480" x2="840" y2="880" stroke="#1e2538" stroke-width="0.5"/>
<line x1="440" y1="480" x2="840" y2="480" stroke="#1e2538" stroke-width="0.5"/>
<line x1="440" y1="505" x2="840" y2="505" stroke="#1e2538" stroke-width="0.5"/>
<line x1="440" y1="530" x2="840" y2="530" stroke="#1e2538" stroke-width="0.5"/>
<line x1="440" y1="555" x2="840" y2="555" stroke="#1e2538" stroke-width="0.5"/>
<line x1="440" y1="580" x2="840" y2="580" stroke="#1e2538" stroke-width="0.5"/>
<line x1="440" y1="605" x2="840" y2="605" stroke="#1e2538" stroke-width="0.5"/>
<line x1="440" y1="630" x2="840" y2="630" stroke="#1e2538" stroke-width="0.5"/>
<line x1="440" y1="655" x2="840" y2="655" stroke="#1e2538" stroke-width="0.5"/>
<line x1="440" y1="680" x2="840" y2="680" stroke="#1e2538" stroke-width="0.5"/>
<line x1="440" y1="705" x2="840" y2="705" stroke="#1e2538" stroke-width="0.5"/>
<line x1="440" y1="730" x2="840" y2="730" stroke="#1e2538" stroke-width="0.5"/>
<line x1="440" y1="755" x2="840" y2="755" stroke="#1e2538" stroke-width="0.5"/>
<line x1="440" y1="780" x2="840" y2="780" stroke="#1e2538" stroke-width="0.5"/>
<line x1="440" y1="805" x2="840" y2="805" stroke="#1e2538" stroke-width="0.5"/>
<line x1="440" y1="830" x2="840" y2="830" stroke="#1e2538" stroke-width="0.5"/>
<line x1="440" y1="855" x2="840" y2="855" stroke="#1e2538" stroke-width="0.5"/>
<line x1="440" y1="880" x2="840" y2="880" stroke="#1e2538" stroke-width="0.5"/>
<defs><clipPath id="clip-g-ShotgungirlGadgetSkillReload-440-480"><rect x="626.0" y="733.3333333333334" width="28" height="66.66666666666666"/></clipPath><filter id="blur-g-ShotgungirlGadgetSkillReload-440-480" x="-30%" y="-30%" width="160%" height="160%"><feGaussianBlur stdDeviation="2.10"/></filter></defs>
<g clip-path="url(#clip-g-ShotgungirlGadgetSkillReload-440-480)"><rect x="626.0" y="733.3333333333334" width="28" height="66.66666666666666" fill="none" stroke="white" stroke-width="8.4" stroke-opacity="0.5" stroke-linejoin="miter" filter="url(#blur-g-ShotgungirlGadgetSkillReload-440-480)"/></g>
<rect x="626.0" y="733.3333333333334" width="28" height="66.66666666666666" fill="none" stroke="white" stroke-width="3.0" stroke-opacity="0.95" stroke-linejoin="miter"/>
<image href="../assets/brawlers/Shelly/portrait.png" x="624.0" y="784.0" width="32" height="32"/>
<text x="452" y="502" font-family="monospace" font-size="13" fill="#fff" font-weight="bold">Gadget: Fast Forward (Dash)</text>
<text x="452" y="520" font-family="monospace" font-size="10" fill="#9ba3b8">skill: ShotgungirlGadgetSkillReload</text>
<text x="452" y="536" font-family="monospace" font-size="10" fill="#9ba3b8">dash — 2.67 tiles forward</text>
<text x="452" y="552" font-family="monospace" font-size="10" fill="#9ba3b8">proj: (movement skill — no projectile)</text>
</svg>