<svg xmlns="http://www.w3.org/2000/svg" viewBox="0 0 600 600" style="background:#0d1117;font-family:sans-serif">
  <rect width="600" height="600" fill="#1a1f2e"/>
  <line x1="0" y1="0" x2="0" y2="600" stroke="#2a3142" stroke-width="0.5"/><line x1="30" y1="0" x2="30" y2="600" stroke="#2a3142" stroke-width="0.5"/><line x1="60" y1="0" x2="60" y2="600" stroke="#2a3142" stroke-width="0.5"/><line x1="90" y1="0" x2="90" y2="600" stroke="#2a3142" stroke-width="0.5"/><line x1="120" y1="0" x2="120" y2="600" stroke="#2a3142" stroke-width="0.5"/><line x1="150" y1="0" x2="150" y2="600" stroke="#2a3142" stroke-width="0.5"/><line x1="180" y1="0" x2="180" y2="600" stroke="#2a3142" stroke-width="0.5"/><line x1="210" y1="0" x2="210" y2="600" stroke="#2a3142" stroke-width="0.5"/><line x1="240" y1="0" x2="240" y2="600" stroke="#2a3142" stroke-width="0.5"/><line x1="270" y1="0" x2="270" y2="600" stroke="#2a3142" stroke-width="0.5"/><line x1="300" y1="0" x2="300" y2="600" stroke="#2a3142" stroke-width="0.5"/><line x1="330" y1="0" x2="330" y2="600" stroke="#2a3142" stroke-width="0.5"/><line x1="360" y1="0" x2="360" y2="600" stroke="#2a3142" stroke-width="0.5"/><line x1="390" y1="0" x2="390" y2="600" stroke="#2a3142" stroke-width="0.5"/><line x1="420" y1="0" x2="420" y2="600" stroke="#2a3142" stroke-width="0.5"/><line x1="450" y1="0" x2="450" y2="600" stroke="#2a3142" stroke-width="0.5"/><line x1="480" y1="0" x2="480" y2="600" stroke="#2a3142" stroke-width="0.5"/><line x1="510" y1="0" x2="510" y2="600" stroke="#2a3142" stroke-width="0.5"/><line x1="540" y1="0" x2="540" y2="600" stroke="#2a3142" stroke-width="0.5"/><line x1="570" y1="0" x2="570" y2="600" stroke="#2a3142" stroke-width="0.5"/><line x1="600" y1="0" x2="600" y2="600" stroke="#2a3142" stroke-width="0.5"/><line x1="0" y1="0" x2="600" y2="0" stroke="#2a3142" stroke-width="0.5"/><line x1="0" y1="30" x2="600" y2="30" stroke="#2a3142" stroke-width="0.5"/><line x1="0" y1="60" x2="600" y2="60" stroke="#2a3142" stroke-width="0.5"/><line x1="0" y1="90" x2="600" y2="90" stroke="#2a3142" stroke-width="0.5"/><line x1="0" y1="120" x2="600" y2="120" stroke="#2a3142" stroke-width="0.5"/><line x1="0" y1="150" x2="600" y2="150" stroke="#2a3142" stroke-width="0.5"/><line x1="0" y1="180" x2="600" y2="180" stroke="#2a3142" stroke-width="0.5"/><line x1="0" y1="210" x2="600" y2="210" stroke="#2a3142" stroke-width="0.5"/><line x1="0" y1="240" x2="600" y2="240" stroke="#2a3142" stroke-width="0.5"/><line x1="0" y1="270" x2="600" y2="270" stroke="#2a3142" stroke-width="0.5"/><line x1="0" y1="300" x2="600" y2="300" stroke="#2a3142" stroke-width="0.5"/><line x1="0" y1="330" x2="600" y2="330" stroke="#2a3142" stroke-width="0.5"/><line x1="0" y1="360" x2="600" y2="360" stroke="#2a3142" stroke-width="0.5"/><line x1="0" y1="390" x2="600" y2="390" stroke="#2a3142" stroke-width="0.5"/><line x1="0" y1="420" x2="600" y2="420" stroke="#2a3142" stroke-width="0.5"/><line x1="0" y1="450" x2="600" y2="450" stroke="#2a3142" stroke-width="0.5"/><line x1="0" y1="480" x2="600" y2="480" stroke="#2a3142" stroke-width="0.5"/><line x1="0" y1="510" x2="600" y2="510" stroke="#2a3142" stroke-width="0.5"/><line x1="0" y1="540" x2="600" y2="540" stroke="#2a3142" stroke-width="0.5"/><line x1="0" y1="570" x2="600" y2="570" stroke="#2a3142" stroke-width="0.5"/><line x1="0" y1="600" x2="600" y2="600" stroke="#2a3142" stroke-width="0.5"/>

  <!-- Max range ring (where the cactus CAN be placed) -->
  <circle cx="300.0" cy="500" r="220.0" fill="none" stroke="#4ade80" stroke-width="1.5" stroke-dasharray="4,4" opacity="0.5"/>

  <!-- Trajectory arc (indicates indirect/thrown projectile) -->
  <path d="M 300.0,500 Q 300.0,220.0 300.0,280.0" fill="none" stroke="#4ade80" stroke-width="2" stroke-dasharray="6,3" opacity="0.7"/>

  <!-- Aim line (faint, straight) -->
  <line x1="300.0" y1="500" x2="300.0" y2="280.0" stroke="#4ade80" stroke-width="1" opacity="0.25"/>

  <!-- Landing target marker -->
  <circle cx="300.0" cy="280.0" r="14" fill="none" stroke="#4ade80" stroke-width="3"/>
  <circle cx="300.0" cy="280.0" r="4" fill="#4ade80"/>
  <line x1="280.0" y1="280.0" x2="320.0" y2="280.0" stroke="#4ade80" stroke-width="1.5"/>
  <line x1="300.0" y1="260.0" x2="300.0" y2="300.0" stroke="#4ade80" stroke-width="1.5"/>

  <!-- Heal-burst-on-death radius (larger faded pulse) -->
  <circle cx="300.0" cy="280.0" r="62.50000000000001" fill="#f87171" fill-opacity="0.12" stroke="#f87171" stroke-width="2" stroke-dasharray="6,4"/>
  <text x="370.5" y="229.5" font-family="monospace" font-size="11" fill="#f87171">heal burst on death</text>
  <text x="370.5" y="243.5" font-family="monospace" font-size="10" fill="#888">radius 2.08 tiles, allies only</text>

  <!-- Cactus footprint (small, what physically spawns) -->
  <circle cx="300.0" cy="280.0" r="7.5" fill="#4ade80" fill-opacity="0.5" stroke="#4ade80" stroke-width="2"/>
  <text x="325.0" y="334.5" font-family="monospace" font-size="11" fill="#4ade80">cactus body</text>
  <text x="325.0" y="348.5" font-family="monospace" font-size="10" fill="#888">blocks shots, 1750 HP</text>

  <!-- Spike token -->
  <circle cx="300.0" cy="500" r="12" fill="#fff" stroke="#4ade80" stroke-width="3"/>
  <text x="300.0" y="504" font-family="monospace" font-size="11" fill="#000" text-anchor="middle" font-weight="bold">Sp</text>

  <!-- Title + labels -->
  <text x="20" y="30" font-family="monospace" font-size="18" fill="#fff" font-weight="bold">Spike — Life Plant gadget reticle</text>
  <text x="20" y="52" font-family="monospace" font-size="12" fill="#aab">card: Cactus_Cover   skill: CactusBonusSkillCover</text>
  <text x="20" y="70" font-family="monospace" font-size="12" fill="#aab">range: 22u  =  7.33 tiles (placement)</text>
  <text x="20" y="88" font-family="monospace" font-size="12" fill="#aab">projectile: Indirect (thrown, gravity 240) — arc, not direct-fire</text>
  <text x="20" y="106" font-family="monospace" font-size="12" fill="#aab">spawns: CactusCover (1750 HP, ~0.50 tile collision)</text>
  <text x="20" y="124" font-family="monospace" font-size="12" fill="#aab">cooldown: 20s     charges: 1     heal: on death</text>
  <text x="20" y="142" font-family="monospace" font-size="12" fill="#f87171">heal-burst: 2.08 tile radius, -30 dmg = heal (scales w/ HP)</text>

  <text x="20" y="580" font-family="monospace" font-size="10" fill="#666">1 tile = 30px  |  reticle type = "indirect placement" (same family as throwers)</text>
</svg>